<mxfile host="app.diagrams.net" agent="Mozilla/5.0 (Windows NT 10.0; Win64; x64) AppleWebKit/537.36 (KHTML, like Gecko) Chrome/130.0.0.0 Safari/537.36" version="24.8.3">
  <diagram name="P치gina-1" id="ONp01auKB5fcC_FBtzY3">
    <mxGraphModel dx="2234" dy="1218" grid="0" gridSize="10" guides="1" tooltips="1" connect="1" arrows="1" fold="1" page="0" pageScale="1" pageWidth="827" pageHeight="1169" math="0" shadow="0">
      <root>
        <mxCell id="0" />
        <mxCell id="1" parent="0" />
        <mxCell id="0XhilErRA81jHkV0WZV6-14" style="edgeStyle=orthogonalEdgeStyle;rounded=0;orthogonalLoop=1;jettySize=auto;html=1;exitX=0;exitY=1;exitDx=0;exitDy=0;entryX=0.5;entryY=0;entryDx=0;entryDy=0;" parent="1" source="0XhilErRA81jHkV0WZV6-1" target="0XhilErRA81jHkV0WZV6-2" edge="1">
          <mxGeometry relative="1" as="geometry" />
        </mxCell>
        <mxCell id="0XhilErRA81jHkV0WZV6-17" style="edgeStyle=orthogonalEdgeStyle;rounded=0;orthogonalLoop=1;jettySize=auto;html=1;exitX=0.75;exitY=1;exitDx=0;exitDy=0;" parent="1" source="0XhilErRA81jHkV0WZV6-1" target="0XhilErRA81jHkV0WZV6-5" edge="1">
          <mxGeometry relative="1" as="geometry" />
        </mxCell>
        <mxCell id="0XhilErRA81jHkV0WZV6-18" style="edgeStyle=orthogonalEdgeStyle;rounded=0;orthogonalLoop=1;jettySize=auto;html=1;exitX=1;exitY=1;exitDx=0;exitDy=0;" parent="1" source="0XhilErRA81jHkV0WZV6-1" target="0XhilErRA81jHkV0WZV6-6" edge="1">
          <mxGeometry relative="1" as="geometry" />
        </mxCell>
        <mxCell id="0XhilErRA81jHkV0WZV6-21" style="edgeStyle=orthogonalEdgeStyle;rounded=0;orthogonalLoop=1;jettySize=auto;html=1;exitX=0;exitY=1;exitDx=0;exitDy=0;" parent="1" source="0XhilErRA81jHkV0WZV6-1" target="0XhilErRA81jHkV0WZV6-20" edge="1">
          <mxGeometry relative="1" as="geometry" />
        </mxCell>
        <mxCell id="0XhilErRA81jHkV0WZV6-1" value="Proyecto Simpsonizados" style="text;html=1;align=center;verticalAlign=middle;whiteSpace=wrap;rounded=0;fillColor=#f8cecc;strokeColor=#b85450;" parent="1" vertex="1">
          <mxGeometry x="77" y="-5" width="160" height="45" as="geometry" />
        </mxCell>
        <mxCell id="0XhilErRA81jHkV0WZV6-13" style="edgeStyle=orthogonalEdgeStyle;rounded=0;orthogonalLoop=1;jettySize=auto;html=1;exitX=0.75;exitY=1;exitDx=0;exitDy=0;entryX=0.5;entryY=0;entryDx=0;entryDy=0;" parent="1" source="0XhilErRA81jHkV0WZV6-2" target="0XhilErRA81jHkV0WZV6-10" edge="1">
          <mxGeometry relative="1" as="geometry" />
        </mxCell>
        <mxCell id="0XhilErRA81jHkV0WZV6-36" style="edgeStyle=orthogonalEdgeStyle;rounded=0;orthogonalLoop=1;jettySize=auto;html=1;exitX=0.5;exitY=1;exitDx=0;exitDy=0;entryX=0.5;entryY=0;entryDx=0;entryDy=0;" parent="1" source="0XhilErRA81jHkV0WZV6-2" target="0XhilErRA81jHkV0WZV6-9" edge="1">
          <mxGeometry relative="1" as="geometry" />
        </mxCell>
        <mxCell id="0XhilErRA81jHkV0WZV6-37" style="edgeStyle=orthogonalEdgeStyle;rounded=0;orthogonalLoop=1;jettySize=auto;html=1;exitX=0;exitY=1;exitDx=0;exitDy=0;" parent="1" source="0XhilErRA81jHkV0WZV6-2" target="0XhilErRA81jHkV0WZV6-8" edge="1">
          <mxGeometry relative="1" as="geometry" />
        </mxCell>
        <mxCell id="0XhilErRA81jHkV0WZV6-2" value="Dise침o de la app" style="text;html=1;align=center;verticalAlign=middle;whiteSpace=wrap;rounded=0;fillColor=#dae8fc;strokeColor=#6c8ebf;" parent="1" vertex="1">
          <mxGeometry x="-438" y="72" width="138" height="30" as="geometry" />
        </mxCell>
        <mxCell id="0XhilErRA81jHkV0WZV6-57" style="edgeStyle=orthogonalEdgeStyle;rounded=0;orthogonalLoop=1;jettySize=auto;html=1;" parent="1" source="0XhilErRA81jHkV0WZV6-5" edge="1">
          <mxGeometry relative="1" as="geometry">
            <mxPoint x="352.5714285714289" y="171" as="targetPoint" />
          </mxGeometry>
        </mxCell>
        <mxCell id="0XhilErRA81jHkV0WZV6-58" style="edgeStyle=orthogonalEdgeStyle;rounded=0;orthogonalLoop=1;jettySize=auto;html=1;" parent="1" source="0XhilErRA81jHkV0WZV6-5" target="0XhilErRA81jHkV0WZV6-48" edge="1">
          <mxGeometry relative="1" as="geometry" />
        </mxCell>
        <mxCell id="0XhilErRA81jHkV0WZV6-5" value="Documentacion" style="text;html=1;align=center;verticalAlign=middle;resizable=0;points=[];autosize=1;strokeColor=#6c8ebf;fillColor=#dae8fc;" parent="1" vertex="1">
          <mxGeometry x="329" y="82" width="101" height="26" as="geometry" />
        </mxCell>
        <mxCell id="0XhilErRA81jHkV0WZV6-61" style="edgeStyle=orthogonalEdgeStyle;rounded=0;orthogonalLoop=1;jettySize=auto;html=1;entryX=0.5;entryY=0;entryDx=0;entryDy=0;" parent="1" source="0XhilErRA81jHkV0WZV6-6" target="0XhilErRA81jHkV0WZV6-59" edge="1">
          <mxGeometry relative="1" as="geometry" />
        </mxCell>
        <mxCell id="0XhilErRA81jHkV0WZV6-62" style="edgeStyle=orthogonalEdgeStyle;rounded=0;orthogonalLoop=1;jettySize=auto;html=1;" parent="1" source="0XhilErRA81jHkV0WZV6-6" target="0XhilErRA81jHkV0WZV6-60" edge="1">
          <mxGeometry relative="1" as="geometry" />
        </mxCell>
        <mxCell id="0XhilErRA81jHkV0WZV6-6" value="Soporte y mantenimiento" style="text;html=1;align=center;verticalAlign=middle;resizable=0;points=[];autosize=1;strokeColor=#6c8ebf;fillColor=#dae8fc;" parent="1" vertex="1">
          <mxGeometry x="531" y="78" width="151" height="26" as="geometry" />
        </mxCell>
        <mxCell id="0XhilErRA81jHkV0WZV6-8" value="Dise침o de la interfaz de usuario" style="text;html=1;align=center;verticalAlign=middle;whiteSpace=wrap;rounded=0;fillColor=#fff2cc;strokeColor=#d6b656;" parent="1" vertex="1">
          <mxGeometry x="-540" y="163" width="87" height="65" as="geometry" />
        </mxCell>
        <mxCell id="0XhilErRA81jHkV0WZV6-9" value="Busqueda y descarga de modelos de personajes" style="text;html=1;align=center;verticalAlign=middle;whiteSpace=wrap;rounded=0;fillColor=#fff2cc;strokeColor=#d6b656;" parent="1" vertex="1">
          <mxGeometry x="-426" y="139" width="99" height="108" as="geometry" />
        </mxCell>
        <mxCell id="0XhilErRA81jHkV0WZV6-10" value="Dise침o de los escenarios de Realidad aumetada" style="text;html=1;align=center;verticalAlign=middle;whiteSpace=wrap;rounded=0;fillColor=#fff2cc;strokeColor=#d6b656;" parent="1" vertex="1">
          <mxGeometry x="-313" y="163" width="109" height="71" as="geometry" />
        </mxCell>
        <mxCell id="0XhilErRA81jHkV0WZV6-44" style="edgeStyle=orthogonalEdgeStyle;rounded=0;orthogonalLoop=1;jettySize=auto;html=1;exitX=0.25;exitY=1;exitDx=0;exitDy=0;" parent="1" source="0XhilErRA81jHkV0WZV6-19" target="0XhilErRA81jHkV0WZV6-42" edge="1">
          <mxGeometry relative="1" as="geometry" />
        </mxCell>
        <mxCell id="0XhilErRA81jHkV0WZV6-19" value="Desarrollo de la app de RA" style="text;html=1;align=center;verticalAlign=middle;whiteSpace=wrap;rounded=0;fillColor=#d5e8d4;strokeColor=#82b366;" parent="1" vertex="1">
          <mxGeometry x="-198" y="171" width="99" height="58" as="geometry" />
        </mxCell>
        <mxCell id="0XhilErRA81jHkV0WZV6-26" style="edgeStyle=orthogonalEdgeStyle;rounded=0;orthogonalLoop=1;jettySize=auto;html=1;exitX=0.5;exitY=1;exitDx=0;exitDy=0;entryX=0.25;entryY=0;entryDx=0;entryDy=0;" parent="1" source="0XhilErRA81jHkV0WZV6-20" target="0XhilErRA81jHkV0WZV6-25" edge="1">
          <mxGeometry relative="1" as="geometry" />
        </mxCell>
        <mxCell id="0XhilErRA81jHkV0WZV6-30" style="edgeStyle=orthogonalEdgeStyle;rounded=0;orthogonalLoop=1;jettySize=auto;html=1;exitX=0.75;exitY=1;exitDx=0;exitDy=0;entryX=0.25;entryY=0;entryDx=0;entryDy=0;" parent="1" source="0XhilErRA81jHkV0WZV6-20" target="0XhilErRA81jHkV0WZV6-29" edge="1">
          <mxGeometry relative="1" as="geometry" />
        </mxCell>
        <mxCell id="0XhilErRA81jHkV0WZV6-20" value="Desarrollo de software" style="text;html=1;align=center;verticalAlign=middle;whiteSpace=wrap;rounded=0;fillColor=#dae8fc;strokeColor=#6c8ebf;" parent="1" vertex="1">
          <mxGeometry x="-164" y="80" width="95" height="30" as="geometry" />
        </mxCell>
        <mxCell id="0XhilErRA81jHkV0WZV6-23" style="edgeStyle=orthogonalEdgeStyle;rounded=0;orthogonalLoop=1;jettySize=auto;html=1;exitX=0.25;exitY=1;exitDx=0;exitDy=0;entryX=0.344;entryY=0.091;entryDx=0;entryDy=0;entryPerimeter=0;" parent="1" source="0XhilErRA81jHkV0WZV6-20" target="0XhilErRA81jHkV0WZV6-19" edge="1">
          <mxGeometry relative="1" as="geometry" />
        </mxCell>
        <mxCell id="0XhilErRA81jHkV0WZV6-25" value="Implementacion de los marcadores" style="text;html=1;align=center;verticalAlign=middle;whiteSpace=wrap;rounded=0;fillColor=#d5e8d4;strokeColor=#82b366;" parent="1" vertex="1">
          <mxGeometry x="-95" y="175.5" width="87" height="58.5" as="geometry" />
        </mxCell>
        <mxCell id="0XhilErRA81jHkV0WZV6-29" value="Integracion de los modelos 3D" style="text;html=1;align=center;verticalAlign=middle;whiteSpace=wrap;rounded=0;fillColor=#d5e8d4;strokeColor=#82b366;" parent="1" vertex="1">
          <mxGeometry x="-8" y="171" width="93" height="56" as="geometry" />
        </mxCell>
        <mxCell id="0XhilErRA81jHkV0WZV6-31" value="Pruebas de funcionaldad" style="text;html=1;align=center;verticalAlign=middle;whiteSpace=wrap;rounded=0;fillColor=#e1d5e7;strokeColor=#9673a6;" parent="1" vertex="1">
          <mxGeometry x="111" y="184" width="85" height="50" as="geometry" />
        </mxCell>
        <mxCell id="0XhilErRA81jHkV0WZV6-32" value="Solucion de problemas" style="text;html=1;align=center;verticalAlign=middle;whiteSpace=wrap;rounded=0;fillColor=#e1d5e7;strokeColor=#9673a6;" parent="1" vertex="1">
          <mxGeometry x="216" y="164.5" width="60" height="62" as="geometry" />
        </mxCell>
        <mxCell id="0XhilErRA81jHkV0WZV6-41" style="edgeStyle=orthogonalEdgeStyle;rounded=0;orthogonalLoop=1;jettySize=auto;html=1;exitX=0.75;exitY=1;exitDx=0;exitDy=0;entryX=0.25;entryY=0;entryDx=0;entryDy=0;" parent="1" source="0XhilErRA81jHkV0WZV6-38" target="0XhilErRA81jHkV0WZV6-32" edge="1">
          <mxGeometry relative="1" as="geometry">
            <Array as="points">
              <mxPoint x="132" y="117" />
              <mxPoint x="132" y="145" />
              <mxPoint x="210" y="145" />
            </Array>
          </mxGeometry>
        </mxCell>
        <mxCell id="0XhilErRA81jHkV0WZV6-47" style="edgeStyle=orthogonalEdgeStyle;rounded=0;orthogonalLoop=1;jettySize=auto;html=1;exitX=0.5;exitY=1;exitDx=0;exitDy=0;entryX=0.5;entryY=0;entryDx=0;entryDy=0;" parent="1" source="0XhilErRA81jHkV0WZV6-38" target="0XhilErRA81jHkV0WZV6-31" edge="1">
          <mxGeometry relative="1" as="geometry">
            <Array as="points">
              <mxPoint x="132" y="117" />
            </Array>
          </mxGeometry>
        </mxCell>
        <mxCell id="0XhilErRA81jHkV0WZV6-38" value="Pruebas de calidad" style="text;html=1;align=center;verticalAlign=middle;whiteSpace=wrap;rounded=0;fillColor=#dae8fc;strokeColor=#6c8ebf;" parent="1" vertex="1">
          <mxGeometry x="99" y="80" width="138" height="30" as="geometry" />
        </mxCell>
        <mxCell id="0XhilErRA81jHkV0WZV6-39" style="edgeStyle=orthogonalEdgeStyle;rounded=0;orthogonalLoop=1;jettySize=auto;html=1;exitX=0.25;exitY=1;exitDx=0;exitDy=0;entryX=0.317;entryY=0.067;entryDx=0;entryDy=0;entryPerimeter=0;" parent="1" source="0XhilErRA81jHkV0WZV6-1" target="0XhilErRA81jHkV0WZV6-38" edge="1">
          <mxGeometry relative="1" as="geometry" />
        </mxCell>
        <mxCell id="0XhilErRA81jHkV0WZV6-42" value="Instalacion de paquetes necesarios" style="text;html=1;align=center;verticalAlign=middle;whiteSpace=wrap;rounded=0;fillColor=#d5e8d4;strokeColor=#82b366;" parent="1" vertex="1">
          <mxGeometry x="-313" y="268" width="106" height="92" as="geometry" />
        </mxCell>
        <mxCell id="0XhilErRA81jHkV0WZV6-43" value="Implementacion de bases de datos para el uso de multitarget" style="text;html=1;align=center;verticalAlign=middle;whiteSpace=wrap;rounded=0;fillColor=#d5e8d4;strokeColor=#82b366;" parent="1" vertex="1">
          <mxGeometry x="-198" y="270" width="142" height="88" as="geometry" />
        </mxCell>
        <mxCell id="0XhilErRA81jHkV0WZV6-45" style="edgeStyle=orthogonalEdgeStyle;rounded=0;orthogonalLoop=1;jettySize=auto;html=1;exitX=0.5;exitY=1;exitDx=0;exitDy=0;entryX=0.363;entryY=0.025;entryDx=0;entryDy=0;entryPerimeter=0;" parent="1" source="0XhilErRA81jHkV0WZV6-19" target="0XhilErRA81jHkV0WZV6-43" edge="1">
          <mxGeometry relative="1" as="geometry" />
        </mxCell>
        <mxCell id="0XhilErRA81jHkV0WZV6-48" value="Generar diagrama de Gant y Gestion de riesgos" style="text;html=1;align=center;verticalAlign=middle;whiteSpace=wrap;rounded=0;fillColor=#f5f5f5;fontColor=#333333;strokeColor=#666666;" parent="1" vertex="1">
          <mxGeometry x="385" y="174.75" width="104" height="67" as="geometry" />
        </mxCell>
        <mxCell id="0XhilErRA81jHkV0WZV6-59" value="Mantenimiento de la app" style="text;html=1;align=center;verticalAlign=middle;whiteSpace=wrap;rounded=0;fillColor=#0050ef;strokeColor=#001DBC;fontColor=#ffffff;" parent="1" vertex="1">
          <mxGeometry x="526" y="174.75" width="93" height="41" as="geometry" />
        </mxCell>
        <mxCell id="0XhilErRA81jHkV0WZV6-60" value="Soporte tecnico" style="text;html=1;align=center;verticalAlign=middle;whiteSpace=wrap;rounded=0;fillColor=#0050ef;fontColor=#ffffff;strokeColor=#001DBC;" parent="1" vertex="1">
          <mxGeometry x="641" y="175.5" width="106" height="30" as="geometry" />
        </mxCell>
        <mxCell id="0XhilErRA81jHkV0WZV6-64" value="Generar la carpeta del proyecto" style="text;html=1;align=center;verticalAlign=middle;whiteSpace=wrap;rounded=0;fillColor=#f5f5f5;fontColor=#333333;strokeColor=#666666;" parent="1" vertex="1">
          <mxGeometry x="302" y="173.25" width="81" height="51.5" as="geometry" />
        </mxCell>
        <mxCell id="-xpW6w0-Llr172rdqA1D-1" value="1" style="text;html=1;align=center;verticalAlign=middle;whiteSpace=wrap;rounded=0;" vertex="1" parent="1">
          <mxGeometry x="-426" y="45" width="60" height="30" as="geometry" />
        </mxCell>
        <mxCell id="-xpW6w0-Llr172rdqA1D-2" value="0" style="text;html=1;align=center;verticalAlign=middle;whiteSpace=wrap;rounded=0;" vertex="1" parent="1">
          <mxGeometry x="124" y="-28" width="60" height="30" as="geometry" />
        </mxCell>
        <mxCell id="-xpW6w0-Llr172rdqA1D-3" value="2" style="text;html=1;align=center;verticalAlign=middle;whiteSpace=wrap;rounded=0;" vertex="1" parent="1">
          <mxGeometry x="-168" y="57" width="60" height="30" as="geometry" />
        </mxCell>
        <mxCell id="-xpW6w0-Llr172rdqA1D-4" value="3" style="text;html=1;align=center;verticalAlign=middle;whiteSpace=wrap;rounded=0;" vertex="1" parent="1">
          <mxGeometry x="91" y="57" width="60" height="30" as="geometry" />
        </mxCell>
        <mxCell id="-xpW6w0-Llr172rdqA1D-5" value="4" style="text;html=1;align=center;verticalAlign=middle;whiteSpace=wrap;rounded=0;" vertex="1" parent="1">
          <mxGeometry x="320" y="60" width="60" height="30" as="geometry" />
        </mxCell>
        <mxCell id="-xpW6w0-Llr172rdqA1D-6" value="5" style="text;html=1;align=center;verticalAlign=middle;whiteSpace=wrap;rounded=0;" vertex="1" parent="1">
          <mxGeometry x="622" y="52" width="60" height="30" as="geometry" />
        </mxCell>
        <mxCell id="-xpW6w0-Llr172rdqA1D-7" value="1.1" style="text;html=1;align=center;verticalAlign=middle;whiteSpace=wrap;rounded=0;" vertex="1" parent="1">
          <mxGeometry x="-567" y="141" width="60" height="30" as="geometry" />
        </mxCell>
        <mxCell id="-xpW6w0-Llr172rdqA1D-8" value="1.2" style="text;html=1;align=center;verticalAlign=middle;whiteSpace=wrap;rounded=0;" vertex="1" parent="1">
          <mxGeometry x="-431" y="113" width="60" height="30" as="geometry" />
        </mxCell>
        <mxCell id="-xpW6w0-Llr172rdqA1D-9" value="1.3" style="text;html=1;align=center;verticalAlign=middle;whiteSpace=wrap;rounded=0;" vertex="1" parent="1">
          <mxGeometry x="-318" y="135" width="60" height="30" as="geometry" />
        </mxCell>
        <mxCell id="-xpW6w0-Llr172rdqA1D-10" value="2.1" style="text;html=1;align=center;verticalAlign=middle;whiteSpace=wrap;rounded=0;" vertex="1" parent="1">
          <mxGeometry x="-164" y="141" width="60" height="30" as="geometry" />
        </mxCell>
        <mxCell id="-xpW6w0-Llr172rdqA1D-11" value="2.2" style="text;html=1;align=center;verticalAlign=middle;whiteSpace=wrap;rounded=0;" vertex="1" parent="1">
          <mxGeometry x="-72" y="145.5" width="60" height="30" as="geometry" />
        </mxCell>
        <mxCell id="-xpW6w0-Llr172rdqA1D-12" value="2.3" style="text;html=1;align=center;verticalAlign=middle;whiteSpace=wrap;rounded=0;" vertex="1" parent="1">
          <mxGeometry x="22" y="139" width="60" height="30" as="geometry" />
        </mxCell>
        <mxCell id="-xpW6w0-Llr172rdqA1D-13" value="3.1" style="text;html=1;align=center;verticalAlign=middle;whiteSpace=wrap;rounded=0;" vertex="1" parent="1">
          <mxGeometry x="141" y="156" width="60" height="30" as="geometry" />
        </mxCell>
        <mxCell id="-xpW6w0-Llr172rdqA1D-14" value="3.2" style="text;html=1;align=center;verticalAlign=middle;whiteSpace=wrap;rounded=0;" vertex="1" parent="1">
          <mxGeometry x="219" y="134.5" width="60" height="30" as="geometry" />
        </mxCell>
        <mxCell id="-xpW6w0-Llr172rdqA1D-15" value="4.1" style="text;html=1;align=center;verticalAlign=middle;whiteSpace=wrap;rounded=0;" vertex="1" parent="1">
          <mxGeometry x="296.0014285714289" y="145.5" width="60" height="30" as="geometry" />
        </mxCell>
        <mxCell id="-xpW6w0-Llr172rdqA1D-16" value="4.2" style="text;html=1;align=center;verticalAlign=middle;whiteSpace=wrap;rounded=0;" vertex="1" parent="1">
          <mxGeometry x="434" y="150" width="60" height="30" as="geometry" />
        </mxCell>
        <mxCell id="-xpW6w0-Llr172rdqA1D-17" value="5.1" style="text;html=1;align=center;verticalAlign=middle;whiteSpace=wrap;rounded=0;" vertex="1" parent="1">
          <mxGeometry x="518" y="148" width="60" height="30" as="geometry" />
        </mxCell>
        <mxCell id="-xpW6w0-Llr172rdqA1D-18" value="5.2" style="text;html=1;align=center;verticalAlign=middle;whiteSpace=wrap;rounded=0;" vertex="1" parent="1">
          <mxGeometry x="641" y="148" width="60" height="30" as="geometry" />
        </mxCell>
        <mxCell id="-xpW6w0-Llr172rdqA1D-19" value="2.1.1" style="text;html=1;align=center;verticalAlign=middle;whiteSpace=wrap;rounded=0;" vertex="1" parent="1">
          <mxGeometry x="-316" y="244" width="60" height="30" as="geometry" />
        </mxCell>
        <mxCell id="-xpW6w0-Llr172rdqA1D-20" value="2.1.2" style="text;html=1;align=center;verticalAlign=middle;whiteSpace=wrap;rounded=0;" vertex="1" parent="1">
          <mxGeometry x="-116" y="244" width="60" height="30" as="geometry" />
        </mxCell>
      </root>
    </mxGraphModel>
  </diagram>
</mxfile>
